<svg xmlns="http://www.w3.org/2000/svg" version="1.1"
  xmlns:xlink="http://www.w3.org/1999/xlink"
  xmlns:svgjs="http://svgjs.dev/svgjs" width="1000" height="179" viewBox="0 0 1000 179">
  <g transform="matrix(1,0,0,1,-0.6060604540493273,-0.46319748608627265)">
    <svg viewBox="0 0 396 71" data-background-color="#051726" preserveAspectRatio="xMidYMid meet" height="179" width="1000"
      xmlns="http://www.w3.org/2000/svg"
      xmlns:xlink="http://www.w3.org/1999/xlink">
      <g id="tight-bounds" transform="matrix(1,0,0,1,0.24000006019650755,0.18372637716271356)">
        <svg viewBox="0 0 395.52 70.63254724567456" height="70.63254724567456" width="395.52">
          <g>
            <svg viewBox="0 0 475.37511669296845 84.89319222601677" height="70.63254724567456" width="395.52">
              <g transform="matrix(1,0,0,1,0,11.732706016764983)">
                <svg viewBox="0 0 395.5199999999999 61.4277801924868" height="61.4277801924868" width="395.5199999999999">
                  <g>
                    <svg viewBox="0 0 395.5199999999999 61.4277801924868" height="61.4277801924868" width="395.5199999999999">
                      <g>
                        <svg viewBox="0 0 395.5199999999999 61.4277801924868" height="61.4277801924868" width="395.5199999999999">
                          <g transform="matrix(1,0,0,1,0,0)">
                            <svg width="395.5199999999999" viewBox="3.130000114440918 -38.15999984741211 312.80999755859375 48.849998474121094" height="61.4277801924868" data-palette-color="#ffffff">
                              <g class="undefined-text-0" data-fill-palette-color="primary" id="text-0">
                                <path d="M23.8-30.66L23.8-30.66 23.34-23.49 23.17-23.44Q21.36-26.15 17.02-26.95L17.02-26.95Q15.65-27.22 14.39-27.22 13.13-27.22 12.24-27 11.35-26.78 10.72-26.37L10.72-26.37Q9.38-25.49 9.38-24.07L9.38-24.07Q9.38-22.22 10.55-21.29L10.55-21.29Q12.01-20.17 15.41-19.71 18.8-19.26 20.85-18.48 22.9-17.7 24.22-16.5L24.22-16.5Q26.71-14.26 26.71-10.16L26.71-10.16Q26.71-4.79 22.66-1.88L22.66-1.88Q19.19 0.61 13.92 0.61L13.92 0.61Q9.67 0.61 5.52-1L5.52-1Q4.15-1.54 3.13-2.25L3.13-2.25 3.39-10.4 3.49-10.47Q6.52-5.25 13.43-5.25L13.43-5.25Q18.33-5.25 19.92-7.62L19.92-7.62Q20.46-8.42 20.46-9.41 20.46-10.4 20.14-11.05 19.82-11.69 19.09-12.16L19.09-12.16Q17.68-13.09 14.33-13.4 10.99-13.72 8.86-14.6 6.74-15.48 5.47-16.77L5.47-16.77Q3.17-19.12 3.17-23.32L3.17-23.32Q3.17-27.66 6.23-30.35L6.23-30.35Q9.33-33.08 14.59-33.08 19.85-33.08 23.8-30.66ZM37.42-28.83L31.93-32.79Q33.88-35.84 36.01-38.16L36.01-38.16 41.26-34.03Q40.21-32.74 39.3-31.49L39.3-31.49Q39.3-31.49 37.42-28.83L37.42-28.83ZM38.35-25.51L38.35-2.73Q38.35-0.63 38.45 0L38.45 0 32.25 0 32.25-25.51 38.35-25.51ZM51.83-17.16L51.83-7.06Q51.83-1.56 52.02 0L52.02 0 45.65 0 45.65-25.51 51.83-25.51 51.83-23.32Q55.17-26 58.69-26L58.69-26Q62.84-26 64.72-22.41L64.72-22.41Q66.6-24.34 67.84-24.95L67.84-24.95Q69.92-26 72-26 74.09-26 75.56-25.29 77.02-24.58 77.97-23.29L77.97-23.29Q79.9-20.68 79.9-16.11L79.9-16.11 79.9-6.4Q79.9-2.27 80.02-1.44 80.15-0.61 80.35-0.37 80.56-0.12 80.71 0.07L80.71 0.07 80.66 0.17Q78.71 0 77.78 0L77.78 0 75.95 0Q75.04 0 73.73 0.07L73.73 0.07 73.73-13.13Q73.73-18.85 71.97-19.92L71.97-19.92Q71.38-20.26 70.59-20.26 69.79-20.26 69.18-20.08 68.57-19.9 68.04-19.48L68.04-19.48Q67.13-18.82 65.99-16.89L65.99-16.89Q66.01-16.7 66.01-16.5 66.01-16.31 66.01-10.06 66.01-3.81 66.3 0L66.3 0Q64.23 0 62.78 0 61.32 0 60 0.07L60 0.07 60-13.16Q60-17.14 59.53-18.33 59.05-19.53 58.52-19.9 57.98-20.26 57.2-20.26L57.2-20.26Q53.97-20.26 51.83-17.16L51.83-17.16ZM93.33-0.51L93.33-0.51 93.33 6.67Q93.33 8.76 93.43 9.4L93.43 9.4 87.35 9.4 87.35-25.51 93.33-25.51 93.33-23.93Q96.28-26 98.99-26 101.7-26 103.8-25.24 105.9-24.49 107.49-22.9L107.49-22.9Q110.98-19.46 110.98-13.09L110.98-13.09Q110.98-8.86 109-5.54L109-5.54Q107.32-2.73 104.34-1.05L104.34-1.05Q101.7 0.44 98.63 0.44 95.55 0.44 93.33-0.51ZM93.33-18.43L93.33-6.67Q95.18-5.1 98.14-5.1L98.14-5.1Q102.97-5.1 104.39-9.77L104.39-9.77Q104.88-11.35 104.88-13.17 104.88-14.99 104.53-16.08 104.19-17.16 103.64-17.96 103.09-18.75 102.41-19.27 101.73-19.8 101.02-20.12L101.02-20.12Q99.77-20.68 98.45-20.68 97.14-20.68 95.72-20.07 94.3-19.46 93.33-18.43L93.33-18.43ZM121.77-36.38L121.77-2.73Q121.77-0.63 121.87 0L121.87 0 115.66 0 115.66-36.38 121.77-36.38ZM127.4-12.55L127.4-12.55Q127.4-15.41 128.38-17.85 129.36-20.29 131.14-22.12L131.14-22.12Q134.95-26 141.1-26L141.1-26Q146.3-26 149.45-22.56L149.45-22.56Q152.55-19.24 152.55-14.21L152.55-14.21Q152.55-12.28 152.26-11.57L152.26-11.57Q149.82-10.89 142.32-10.89L142.32-10.89 133.73-10.89Q134.36-8.28 136.68-6.82 139-5.37 142.71-5.37L142.71-5.37Q146.59-5.37 149.38-6.76L149.38-6.76Q150.11-7.13 150.48-7.45L150.48-7.45Q150.43-6.42 150.35-5.35L150.35-5.35 150.09-1.54Q148.23-0.27 144.08 0.22L144.08 0.22Q142.86 0.37 141.74 0.37L141.74 0.37Q135.53 0.37 131.48-3.25L131.48-3.25Q127.4-6.88 127.4-12.55ZM146.06-15.63L146.06-15.63Q145.06-20.87 140.34-20.87L140.34-20.87Q136.63-20.87 134.7-17.68L134.7-17.68Q134.12-16.7 133.8-15.53L133.8-15.53Q134.39-15.5 135.24-15.48L135.24-15.48 137.05-15.48Q137.95-15.45 138.78-15.45L138.78-15.45 140.17-15.45Q141.42-15.45 142.61-15.48L142.61-15.48 144.62-15.55Q145.42-15.58 146.06-15.63Z" fill="#ffffff" data-fill-palette-color="primary"></path>
                                <path d="M176.35-30.66L176.35-30.66 175.89-23.49 175.72-23.44Q173.91-26.15 169.57-26.95L169.57-26.95Q168.2-27.22 166.94-27.22 165.68-27.22 164.79-27 163.9-26.78 163.27-26.37L163.27-26.37Q161.93-25.49 161.93-24.07L161.93-24.07Q161.93-22.22 163.1-21.29L163.1-21.29Q164.56-20.17 167.96-19.71 171.35-19.26 173.4-18.48 175.45-17.7 176.77-16.5L176.77-16.5Q179.26-14.26 179.26-10.16L179.26-10.16Q179.26-4.79 175.21-1.88L175.21-1.88Q171.74 0.61 166.47 0.61L166.47 0.61Q162.22 0.61 158.07-1L158.07-1Q156.7-1.54 155.68-2.25L155.68-2.25 155.94-10.4 156.04-10.47Q159.07-5.25 165.98-5.25L165.98-5.25Q170.88-5.25 172.47-7.62L172.47-7.62Q173.01-8.42 173.01-9.41 173.01-10.4 172.69-11.05 172.37-11.69 171.64-12.16L171.64-12.16Q170.23-13.09 166.88-13.4 163.54-13.72 161.41-14.6 159.29-15.48 158.02-16.77L158.02-16.77Q155.72-19.12 155.72-23.32L155.72-23.32Q155.72-27.66 158.78-30.35L158.78-30.35Q161.88-33.08 167.14-33.08 172.4-33.08 176.35-30.66ZM191.61-0.51L191.61-0.51 191.61 6.67Q191.61 8.76 191.71 9.4L191.71 9.4 185.63 9.4 185.63-25.51 191.61-25.51 191.61-23.93Q194.56-26 197.27-26 199.98-26 202.08-25.24 204.18-24.49 205.77-22.9L205.77-22.9Q209.26-19.46 209.26-13.09L209.26-13.09Q209.26-8.86 207.28-5.54L207.28-5.54Q205.6-2.73 202.62-1.05L202.62-1.05Q199.98 0.44 196.91 0.44 193.83 0.44 191.61-0.51ZM191.61-18.43L191.61-6.67Q193.47-5.1 196.42-5.1L196.42-5.1Q201.25-5.1 202.67-9.77L202.67-9.77Q203.16-11.35 203.16-13.17 203.16-14.99 202.82-16.08 202.47-17.16 201.92-17.96 201.38-18.75 200.69-19.27 200.01-19.8 199.3-20.12L199.3-20.12Q198.06-20.68 196.74-20.68 195.42-20.68 194-20.07 192.59-19.46 191.61-18.43L191.61-18.43ZM212.53-12.62L212.53-12.62Q212.53-15.31 213.45-17.76 214.36-20.21 216.07-22.05L216.07-22.05Q219.81-26 225.76-26L225.76-26Q231.7-26 235.19-22.27L235.19-22.27Q238.53-18.7 238.53-13.01L238.53-13.01Q238.53-7.32 235.09-3.59L235.09-3.59Q231.45 0.37 225.45 0.37L225.45 0.37Q219.24 0.37 215.73-3.52L215.73-3.52Q212.53-7.06 212.53-12.62ZM218.46-12.77L218.46-12.77Q218.46-11.23 218.98-9.79 219.49-8.35 220.44-7.32L220.44-7.32Q222.47-5.1 225.76-5.1L225.76-5.1Q228.81-5.1 230.57-7.28L230.57-7.28Q232.28-9.38 232.28-12.74L232.28-12.74Q232.28-16.16 230.52-18.26L230.52-18.26Q228.64-20.51 225.37-20.51L225.37-20.51Q222.05-20.51 220.17-18.12L220.17-18.12Q218.46-15.92 218.46-12.77ZM254.94-5.37L254.94-5.37Q258.08-5.37 259.26-7.01L259.26-7.01 259.45-7.01 259.52-1.34Q258.33-0.15 255.08 0.24L255.08 0.24Q254.2 0.37 252.9 0.37 251.59 0.37 250.06-0.12 248.54-0.61 247.46-1.71L247.46-1.71Q245.24-3.98 245.24-8.81L245.24-8.81 245.24-19.9 241.56-19.9Q241.53-20.61 241.53-21.34L241.53-21.34 241.53-25.1Q241.53-25.51 241.56-25.51L241.56-25.51 245.24-25.51 245.24-32.47 251.22-32.47 251.22-25.51 257.94-25.51 257.94-19.9 251.22-19.9 251.22-9.94Q251.22-6.1 253.35-5.57L253.35-5.57Q254.03-5.37 254.94-5.37ZM269.19-28.83L263.7-32.79Q265.65-35.84 267.77-38.16L267.77-38.16 273.02-34.03Q271.97-32.74 271.07-31.49L271.07-31.49Q271.07-31.49 269.19-28.83L269.19-28.83ZM270.12-25.51L270.12-2.73Q270.12-0.63 270.22 0L270.22 0 264.01 0 264.01-25.51 270.12-25.51ZM283.1-22.71L289.18-22.71Q288.99-22 288.99-19.14L288.99-19.14 288.99-16.99 283.1-16.99 283.1 0 277.12 0 277.12-16.99 273.53-16.99Q273.56-18.6 273.58-19.85L273.58-19.85 273.63-22.46 273.63-22.71 277.12-22.71 277.12-24.22Q277.12-30.08 279.86-33.64L279.86-33.64Q282.71-37.33 287.72-37.33L287.72-37.33Q289.84-37.33 290.53-37.04L290.53-37.04 290.55-30.91 290.5-30.79Q289.57-31.71 288.15-31.71 286.72-31.71 285.84-31.24 284.96-30.76 284.35-29.88L284.35-29.88Q283.1-28.13 283.1-25.07L283.1-25.07 283.1-22.71ZM297.65 10.69L291.35 8.5 292.96 7.2Q296.6 4.25 298.99-1.51L298.99-1.51 300.12-4.22 290.77-25.51 297.6-25.51 303.46-10.77 308.91-25.51 315.94-25.51Q314.67-23.75 312.84-18.97L312.84-18.97 309.18-9.91Q301.83 7.37 297.65 10.69L297.65 10.69Z" fill="#81ffd9" data-fill-palette-color="secondary"></path>
                              </g>
                            </svg>
                          </g>
                        </svg>
                      </g>
                    </svg>
                  </g>
                </svg>
              </g>
              <g transform="matrix(1,0,0,1,410.0216246367214,0)">
                <svg viewBox="0 0 65.353492056247 84.89319222601677" height="84.89319222601677" width="65.353492056247">
                  <g>
                    <svg xmlns="http://www.w3.org/2000/svg"
                      xmlns:xlink="http://www.w3.org/1999/xlink" xml:space="preserve" version="1.1" style="shape-rendering:geometricPrecision;text-rendering:geometricPrecision;image-rendering:optimizeQuality;" viewBox="1902 975.490478515625 6196 8048.509765625" x="0" y="0" fill-rule="evenodd" clip-rule="evenodd" height="84.89319222601677" width="65.353492056247" class="icon-icon-0" data-fill-palette-color="accent" id="icon-0">
                      <g fill="#81ffd9" data-fill-palette-color="accent">
                        <path class="" d="M7009 5046c237 0 456 76 634 204l-41-2298-3606 1222c7 1240 83 2556 83 3762 0 600-488 1088-1088 1088-600 0-1089-488-1089-1088 0-601 489-1089 1089-1089 215 0 416 63 585 171-9-1494-17-2988-26-4482 0-100 67-184 158-210l4012-1338c162-53 284 70 287 226 30 1638 91 3288 91 4921 0 600-489 1088-1089 1088-600 0-1088-488-1088-1088 0-601 488-1089 1088-1089z m585-2553l-18-997-3588 1196 5 1022 3601-1221z m-4143 4983c-118-118-280-191-460-191-360 0-651 291-651 651 0 360 290 650 651 650 360 0 651-290 651-650 0-180-73-343-191-460z m4018-1801c-118-118-280-191-460-191-360 0-651 291-651 651 0 360 291 650 651 650 360 0 651-290 651-650 0-180-73-343-191-460z" fill="#81ffd9" fill-rule="nonzero" data-fill-palette-color="accent"></path>
                      </g>
                    </svg>
                  </g>
                </svg>
              </g>
            </svg>
          </g>
          <defs></defs>
        </svg>
        <rect width="395.52" height="70.63254724567456" fill="none" stroke="none" visibility="hidden"></rect>
      </g>
    </svg>
  </g>
</svg>